<?xml version="1.0" encoding="utf-8"?>
<!-- Generator: Adobe Illustrator 26.1.0, SVG Export Plug-In . SVG Version: 6.00 Build 0)  -->
<svg version="1.1" id="Layer_1" xmlns="http://www.w3.org/2000/svg" xmlns:xlink="http://www.w3.org/1999/xlink" x="0px" y="0px"
	 viewBox="0 0 447.7 266.8" style="enable-background:new 0 0 447.7 266.8;" xml:space="preserve">
<style type="text/css">
	.st0{fill:url(#SVGID_00000015336212782916500040000016592745094826813887_);}
	.st1{fill:#FFFFFF;}
	.st2{fill:url(#SVGID_00000029043106828821714170000010510385360461009808_);}
</style>
<g>
	<g>
		<g>
			<defs>
				<rect id="SVGID_1_" width="1326" height="792"/>
			</defs>
			<clipPath id="SVGID_00000142898792872950485880000017686289631752153760_">
				<use xlink:href="#SVGID_1_"  style="overflow:visible;"/>
			</clipPath>
		</g>
	</g>
</g>
<g>
	<g>
		
			<linearGradient id="SVGID_00000072983929423618829050000010649944598651835053_" gradientUnits="userSpaceOnUse" x1="0.91" y1="791.08" x2="133.41" y2="658.58" gradientTransform="matrix(1 0 0 -1 0 792)">
			<stop  offset="0" style="stop-color:#243F1C"/>
			<stop  offset="1" style="stop-color:#236C36"/>
		</linearGradient>
		
			<rect x="0.9" y="0.9" style="fill:url(#SVGID_00000072983929423618829050000010649944598651835053_);" width="132.5" height="132.5"/>
		<path class="st1" d="M0,134.3V0h134.3v133.4v0.9L0,134.3L0,134.3z M133.4,133.4v-0.9V133.4L133.4,133.4z M1.8,132.5h130.7V1.8H1.8
			V132.5L1.8,132.5z"/>
	</g>
	<g>
		<path class="st1" d="M21.2,31.2h34.7c12.1,0,21.8,6.1,21.8,18.3c0,8.1-4.4,13.3-12.5,14.9v0.2C75.3,65.6,81,74,81,82.8
			c0,18.4-13.1,22-28.4,22H21.2V31.2z M35.1,60.8h16.5c6.1,0,11.7-2.4,11.7-9.4c0-5.6-3.6-9.2-11.7-9.2H35.1V60.8z M35.1,92.6h18
			c8.4,0,13.5-2.6,13.5-10.2c0-8.3-5.2-11.3-13.5-11.3H35.1V92.6z"/>
		<path class="st1" d="M89.7,52.5h12.6v7.2h0.2c3-6,8.8-8.5,16.1-8.5v12.8c-8.6,0-16.3,4-16.3,15.4v25.3H89.7L89.7,52.5L89.7,52.5z"
			/>
	</g>
	<g>
		<path class="st1" d="M104.8,19.2h1.1c1.1,0,2-0.5,2-1.7c0-1.3-0.7-2-2-2c-1.5,0-2,1.3-2.1,2.6l-3-0.6c0.5-2.9,2.3-4.5,5.3-4.5
			c2.5,0,4.7,1.3,4.7,4c0,1.8-0.8,2.8-2.5,3.2v0c1.9,0.4,2.8,1.8,2.9,3.7c0,3.1-2.6,4.6-5.5,4.6c-3,0-5.2-1.4-5.2-5.2h2.8
			c0,1.6,0.8,2.7,2.5,2.7c1.4,0,2.3-1,2.3-2.3c0-1.7-1.1-2.2-2.2-2.2h-1.1L104.8,19.2L104.8,19.2z"/>
		<path class="st1" d="M114.3,13.2h8.4l-0.3,2.6h-5.8l-0.5,3.1c0.8-0.7,1.7-1.1,2.7-1.1c3.2,0,4.7,2.4,4.7,5.2
			c0,3.5-2.4,5.5-5.6,5.5c-2.8,0-5.1-1.4-5.2-4.4l3.1-0.2c0,1.3,0.8,2.3,2.2,2.3c1.8,0,2.5-1.5,2.5-3.1c0-2-1-2.8-2.5-2.8
			c-1.1,0-1.7,0.5-2.2,1.4l-2.6-0.2L114.3,13.2z"/>
	</g>
	<path class="st1" d="M156.6,77.7c-3.6,0-4,0.1-4,2.9c0,8.3,6.7,15.8,15.9,15.8c3.8,0,7.2-1.1,10.6-3.5c2.3-1.6,3.9-3.6,5.9-3.6
		c1.5,0,2.7,1.1,2.7,2.5c0,1.5-1.6,4.1-4.8,6.6c-5.6,4.6-10.8,6.9-17.9,6.9c-14.8,0-25.8-11.4-25.8-26.2c0-16.2,11.2-27.9,27-27.9
		c13.4,0,21.7,8.2,21.7,21.1c0,4.8-1.2,5.2-5.8,5.2h-24.9C157,77.7,156.8,77.7,156.6,77.7z M173.1,71.8c2.5,0,3.3-0.3,3.3-1.9
		c0-6.4-4.8-11.8-11.8-11.8c-6.8,0-11.4,5.4-11.4,11.8c0,1.6,0.7,1.9,3.2,1.9H173.1z"/>
	<path class="st1" d="M238.7,96c3.1,0.9,4.9,0.9,4.9,3.1c0,3.1-5,6.5-11.6,6.5c-3.9,0-6.5-5.4-7.5-5.4c-1.6,0-6.1,5.4-15.2,5.4
		c-10.1,0-16.9-6.4-16.9-15.9c0-10.9,8.2-17.7,22.9-17.7c2.7,0,5.9,0.3,9.7,0.9v-5.5c0-6.1-2.8-9.5-7.7-9.5c-3.5,0-6.3,1.5-9,4.6
		c-2.1,2.5-3.5,5.3-7.8,5.3c-2.8,0-4.5-1.9-4.5-4.9c0-5.9,7.9-11.5,21.5-11.5c7.9,0,13.4,2.1,16.3,5.9c2.7,3.4,2.9,8.5,2.9,15.8
		v16.7C236.7,93.5,237.2,95.6,238.7,96z M217.3,78.7c-7.5,0-11.8,3.6-11.8,9.4c0,5.4,3.8,9.1,10,9.1c7,0,9.4-3,9.4-9.9v-7.7
		C222.1,79,219.5,78.7,217.3,78.7z"/>
	<path class="st1" d="M264.3,69.3c0,2.1,0.1,3.2,1,3.2c0.5,0,2.6-1.3,5.9-4.3c4.2-3.9,6.5-6.2,6.5-7.5c0-1.3-3.9-1.2-3.9-4.1
		c0-3.5,4.2-4.2,12.9-4.2c6.3,0,9.5,1.2,9.5,3.9c0,4-4.9,2.8-9.2,5.3c-2,1.2-4.3,3.6-7.1,6.4c-1.4,1.4-2.2,2.3-2.2,3
		c0,1,1.8,3.4,5.1,7.7c7.2,9.4,12.1,14.8,14.6,16.6c3.5,2.5,8,1.6,8,5.1c0,3.1-3.3,4.2-10.4,4.2c-3,0-4.9-0.3-5.5-0.5
		c-2.9-1-5.2-4.7-9.4-10c-9-11.4-13.7-17.5-14.7-17.5c-0.9,0-1,0.8-1,2.8c0,0.6,0,1.3,0,2.2c0,8.6,0.2,13.5,1.4,14.9
		c1.4,1.6,5.3,1.1,5.3,4.4c0,3-3.8,3.7-11.9,3.7c-9.1,0-13-0.5-13-4c0-2.4,2.1-2.4,3.9-3.3c2.1-1.2,2.5-4.9,2.5-11.8
		c0-3.9-0.1-8.6-0.1-14.5c0-2.2,0-4.4,0-6.4c0-15.2-0.1-21-1.4-22.6c-0.8-0.9-2.5-1.1-4.7-1.8c-1.6-0.5-2.3-0.9-2.3-2.5
		c0-2.1,1.9-3,5.7-4.3c5.9-2,10.4-2.7,12.4-2.7c2.2,0,2.9,1.3,2.9,4.4c0,5.4-0.6,10.8-0.6,21L264.3,69.3L264.3,69.3z"/>
	<path class="st1" d="M326,87.5c0,5.5,0.3,8.7,2,9.6c2.4,1.3,4.6,1,4.6,3.8c0,3-3.7,3.7-11.8,3.7c-9.1,0-13.1-0.5-13.1-4
		c0-2.4,2.1-2.4,3.9-3.3c2-1.1,2.5-3.7,2.5-8.2c0-2.1-0.1-4.6-0.1-7.7c0-1.9,0-3.8,0-5.4c0-8.4-0.1-12.8-1.8-13.7
		c-2.5-1.3-5.6-1.1-5.6-3.7c0-1.6,1.4-2.8,4.2-3.9c7-2.8,12.4-3.5,13.4-3.5c2,0,2.6,1.4,2.6,4.4c0,1.3,0,3.2-0.1,5.4l-0.4,13.3
		C326.2,79,326,83.4,326,87.5z M319.3,32.4c4.7,0,7.9,3,7.9,6.6c0,3.7-3.5,6.8-8.5,6.8c-4.6,0-7.8-2.8-7.8-6.3
		C310.9,35.8,314.5,32.4,319.3,32.4z"/>
	<path class="st1" d="M370.8,51.4c5.3,0,10.1,2.5,13.1,6c4.1,4.9,4.4,10.9,4.4,19.1c0,3.9,0,6.2,0,7c0,2.5-0.1,4.5-0.1,6.3
		c0,4.1,0.3,6.3,2.4,7.5c1.7,0.9,3.9,0.9,3.9,3.3c0,3.5-3.9,3.9-12.8,3.9c-8.4,0-12.2-0.5-12.2-3.6c0-2.8,2.2-2.5,4.6-3.8
		c1.8-1,2.1-4.5,2.1-10.8c0-16.4-0.2-24.9-9.7-24.9c-3.7,0-7.4,2.3-9.2,6.1c-1.9,3.9-2,10.7-2,20.6c0,5.1,0.1,8,1.9,9
		c2.4,1.3,4.6,1,4.6,3.8c0,3-3.7,3.7-11.8,3.7c-9.1,0-13.1-0.5-13.1-4c0-2.4,2.1-2.4,3.9-3.3c2-1.1,2.5-3.7,2.5-8.2
		c0-2.1-0.1-4.6-0.1-7.7c0-1.9,0-3.8,0-5.4c0-8.4-0.1-12.8-1.8-13.7c-2.5-1.3-5.6-1.1-5.6-3.7c0-1.6,1.4-2.8,4.2-3.9
		c6.6-2.5,11.5-3.3,12.9-3.3c1.9,0,2.8,0.9,2.8,3.3v2.9c0,0.3,0,0.5,0,0.6c0,0.4,0,0.6,0.4,0.6c0.2,0,0.4-0.1,0.5-0.2l1.2-1.1
		C360.6,54.9,363.3,51.4,370.8,51.4z"/>
	<path class="st1" d="M398.3,71.1c0-11.2,9.4-19.7,22.6-19.7c3.6,0,8.1,0.8,13.5,2c2.8,0,5.7-1.4,9.7-4.2c1.4,0.9,2.2,2.1,2.2,3.4
		c0,2.9-2.1,5.7-6.3,7.9c1.4,2.8,2.1,5.4,2.1,8.5c0,11.2-9,19.4-22.9,19.4c-3.8,0-7.2-0.5-10.4-1.6c-1.4,1.5-2.1,2.9-2.1,4.1
		c0,3.4,3.4,4.8,10.1,4.8c5.2,0,10.5-1.1,16-1.1c9.7,0,14.9,4.1,14.9,11.3c0,10.6-11.4,19.3-28.8,19.3c-14.1,0-23.1-6.7-23.1-13.8
		c0-3.8,2.5-6.3,7.4-9.3c-4.1-1.4-6.3-4.2-6.3-7.7c0-3.6,2.5-6.9,7.5-10C400.4,80.9,398.3,76.4,398.3,71.1z M407.1,110.3
		c0,4.6,5,8.1,13.8,8.1c9.8,0,16.1-4.4,16.1-9.3c0-3.3-2.4-5.2-6.8-5.2c-3.2,0-7.9,1-13.9,1c-2,0-4.2-0.1-6.5-0.4
		C407.9,106.2,407.1,108.1,407.1,110.3z M420,81.6c5.8,0,10.2-4.7,10.2-11.7c0-7.2-4.3-11.9-10.1-11.9c-5.3,0-9.6,4.8-9.6,11.8
		C410.5,77,414.5,81.6,420,81.6z"/>
	<g>
		<path class="st1" d="M310.6,231.8c0-0.9-0.2-1.3-0.4-1.3c-0.3,0-1.5,1.1-3.9,2.9c-4,3-7.9,4.5-12.2,4.5c-12.7,0-22-9.9-22-25.2
			c0-17,10.4-28.6,25.1-28.6c7.1,0,11.5,3.1,12.4,3.1c0.6,0,0.7-0.9,0.7-2.5v-3.7c0-4.7-0.6-6.2-3.3-7.1c-2.5-0.8-4.6-0.8-4.6-3.2
			c0-2.2,2.1-3.3,6.4-4.8c4.5-1.6,8.1-2.2,10.6-2.2c2.4,0,3.3,1.2,3.3,4.3c0,1.7-0.6,10.8-0.6,32.3c0,17.5,0.1,26.3,1.5,27.4
			c2.2,1.6,6.3,0.6,6.3,3.7c0,2.5-2.8,3.3-8.1,5c-3.6,1.2-7.2,1.6-8.6,1.6c-1.9,0-2.8-1-2.8-3.4L310.6,231.8L310.6,231.8z
			 M310,202.4c0-2.9,0-4.8-1-6.1c-2.1-2.9-6.5-5.2-11-5.2c-7.5,0-12.7,6.4-12.7,17.7c0,12.1,5.9,19.7,13.4,19.7
			c7.2,0,11.3-4,11.3-11.8V202.4z"/>
	</g>
	<g>
		
			<linearGradient id="SVGID_00000038391442806315898510000014162514438666665349_" gradientUnits="userSpaceOnUse" x1="265.9301" y1="526.15" x2="133.4301" y2="658.65" gradientTransform="matrix(1 0 0 -1 0 792)">
			<stop  offset="0" style="stop-color:#243F1C"/>
			<stop  offset="1" style="stop-color:#236C36"/>
		</linearGradient>
		
			<rect x="133.4" y="133.3" style="fill:url(#SVGID_00000038391442806315898510000014162514438666665349_);" width="132.5" height="132.5"/>
		<path class="st1" d="M132.5,266.8V132.4h134.3v133.4v0.9H132.5L132.5,266.8z M265.9,265.8v-0.9V265.8L265.9,265.8z M134.3,264.9
			H265V134.2H134.3V264.9L134.3,264.9z"/>
	</g>
	<g>
		<path class="st1" d="M143.3,163.6H178c12.1,0,21.8,6.1,21.8,18.3c0,8.1-4.5,13.3-12.5,14.9v0.2c10.1,1,15.8,9.4,15.8,18.2
			c0,18.4-13.1,22-28.5,22h-31.3V163.6z M157.2,193.2h16.5c6.1,0,11.7-2.4,11.7-9.4c0-5.6-3.6-9.2-11.7-9.2h-16.5V193.2z
			 M157.2,225.1h18c8.4,0,13.5-2.6,13.5-10.2c0-8.3-5.2-11.3-13.5-11.3h-17.9V225.1z"/>
		<path class="st1" d="M255.6,228.5c0,5.4,1.2,7.7,2,8.8h-13.3c-0.8-1.2-1.2-3.4-1.2-4.8c-4.9,3.9-10.6,6-17.1,6
			c-9.9,0-17.8-6.3-17.8-16.4c0-10.2,8.2-14.8,15.9-16.4l5.3-1c4.5-0.9,10.5-2,13.7-3.1v-1.5c0-5.2-4.5-6.6-9.9-6.6
			c-7.3,0-9.7,2.2-9.7,7.9l-12.6-0.5c0-12.3,10.9-17.1,22.3-17.1c11.3,0,22.5,2.3,22.5,17.2L255.6,228.5L255.6,228.5z M243,211.1
			c-1.7,0.8-3.7,1.5-6,1.9l-6.9,1.5c-4.8,0.9-8.7,2.3-8.7,7.2c0,3.9,3.6,6.5,8.2,6.5c5.9,0,13.5-2.9,13.5-9.6V211.1z"/>
	</g>
	<g>
		<path class="st1" d="M234.1,144.8h8.4l-0.3,2.6h-5.8l-0.5,3.1c0.8-0.7,1.7-1.1,2.7-1.1c3.2,0,4.7,2.4,4.7,5.2
			c0,3.5-2.4,5.5-5.6,5.5c-2.8,0-5.1-1.4-5.2-4.4l3.1-0.2c0,1.3,0.8,2.3,2.2,2.3c1.8,0,2.5-1.5,2.5-3.1c0-2-1-2.8-2.5-2.8
			c-1.1,0-1.7,0.5-2.2,1.4l-2.6-0.2L234.1,144.8z"/>
		<path class="st1" d="M252.5,148.7c-0.1-1.1-0.8-1.7-1.8-1.7c-2.2,0-2.6,2.8-2.6,4.6h0c0.4-0.5,1.2-1.4,2.9-1.4c2.8,0,4.5,2,4.5,5
			c0,2.8-2,5-5,5c-4.4,0-5.4-3.9-5.4-7.4c0-4.8,1.9-8.2,5.6-8.2c2.5,0,4.2,1.3,4.6,3.8L252.5,148.7z M248.2,155.2
			c0,1.5,0.8,2.5,2.2,2.5c1.4,0,2.2-0.9,2.2-2.5c0-1.5-0.8-2.5-2.2-2.5C249,152.7,248.2,153.6,248.2,155.2z"/>
	</g>
</g>
<g>
	<g>
		<g>
			<defs>
				<rect id="SVGID_00000073722375619096389070000012231845002131122598_" x="-4560.9" y="-3388" width="5223.9" height="1897.7"/>
			</defs>
			<clipPath id="SVGID_00000091017522959252035310000013251990093745063316_">
				<use xlink:href="#SVGID_00000073722375619096389070000012231845002131122598_"  style="overflow:visible;"/>
			</clipPath>
		</g>
	</g>
</g>
</svg>
