<?xml version="1.0" encoding="utf-8"?>
<!-- Generator: Adobe Illustrator 26.1.0, SVG Export Plug-In . SVG Version: 6.00 Build 0)  -->
<svg version="1.1" id="Layer_1" xmlns="http://www.w3.org/2000/svg" xmlns:xlink="http://www.w3.org/1999/xlink" x="0px" y="0px"
	 viewBox="0 0 620 367.7" style="enable-background:new 0 0 620 367.7;" xml:space="preserve">
<style type="text/css">
	.st0{fill:#0D6D38;}
	.st1{fill:#FFFFFF;}
	.st2{fill:#282828;}
</style>
<g>
	<path class="st0" d="M172.5,0H11.4C5.1,0,0,5.1,0,11.4v161.1c0,6.3,5.1,11.4,11.4,11.4h161.1c6.3,0,11.4-5.1,11.4-11.4V11.4
		C183.9,5.1,178.8,0,172.5,0z"/>
	<g>
		<path class="st1" d="M21,53.5h48.2c16.8,0,30.3,8.5,30.3,25.4c0,11.2-6.1,18.5-17.3,20.7v0.3c14,1.4,21.9,13,21.9,25.3
			c0,25.5-18.2,30.5-39.4,30.5H21V53.5z M40.2,94.6h22.9c8.5,0,16.2-3.3,16.2-13c0-7.8-5-12.8-16.2-12.8H40.2V94.6z M40.2,138.7h25
			c13.5,0,20.9-4.8,18.2-19.7c-1.1-5.9-6.2-10.1-12.2-10.1l-31,0V138.7z"/>
		<path class="st1" d="M116,83.1h17.5v10h0.3c4.2-8.3,12.2-11.8,22.3-11.8V99c-11.9,0-22.6,5.6-22.6,21.4v35.1H116V83.1L116,83.1z"
			/>
	</g>
	<g>
		<path class="st1" d="M137,36.8h1.5c2.1,0,3.7-1.3,2.2-4.6c-3.8-1.6-4.9,0.8-5.1,3.1l-4.2-0.8c0.7-4,3.2-6.2,7.4-6.2
			c3.5,0,6.5,1.8,6.5,5.6c0,2.5-1.1,3.9-3.5,4.4l0,0c2.6,0.6,3.9,2.5,4,5.1c0,4.3-3.6,6.4-7.6,6.4c-4.2,0-7.2-1.9-7.2-7.2h3.9
			c0,2.2,1.1,3.7,3.5,3.7c1.9,0,3.2-1.4,3.2-3.2c0-2.4-1.5-3.1-3.1-3.1H137L137,36.8L137,36.8z"/>
		<path class="st1" d="M150.1,28.5h11.7l-0.4,3.6h-8l-0.7,4.3c1.1-1,2.4-1.5,3.7-1.5c4.4,0,6.5,3.3,6.5,7.2c0,4.9-3.3,7.6-7.8,7.6
			c-3.9,0-7.1-1.9-7.2-6.1l4.3-0.3c0,1.8,1.1,3.2,3.1,3.2c2.5,0,3.5-2.1,3.5-4.3c0-2.8-1.4-3.9-3.5-3.9c-1.5,0-2.4,0.7-3.1,1.9
			l-3.6-0.3L150.1,28.5z"/>
	</g>
	<g>
		<path class="st2" d="M216.1,117.2c-5,0-5.6,0.1-5.6,4c0,11.5,9.3,21.9,22.1,21.9c5.3,0,10-1.5,14.7-4.9c3.2-2.2,5.4-5,8.2-5
			c2.1,0,3.7,1.5,3.7,3.5c0,2.1-2.2,5.7-6.7,9.2c-7.8,6.4-15,9.6-24.8,9.6c-20.5,0-35.8-15.8-35.8-36.4c0-22.5,15.5-38.7,37.5-38.7
			c18.6,0,30.1,11.4,30.1,29.3c0,6.7-1.7,7.2-8,7.2h-34.6C216.6,117.2,216.3,117.2,216.1,117.2z M239,109c3.5,0,4.6-0.4,4.6-2.6
			c0-8.9-6.7-16.4-16.4-16.4c-9.4,0-15.8,7.5-15.8,16.4c0,2.2,1,2.6,4.4,2.6H239z"/>
		<path class="st2" d="M330,142.6c4.3,1.2,6.8,1.2,6.8,4.3c0,4.3-6.9,9-16.1,9c-5.4,0-9-7.5-10.4-7.5c-2.2,0-8.5,7.5-21.1,7.5
			c-14,0-23.5-8.9-23.5-22.1c0-15.1,11.4-24.6,31.8-24.6c3.7,0,8.2,0.4,13.5,1.2v-7.6c0-8.5-3.9-13.2-10.7-13.2
			c-4.9,0-8.7,2.1-12.5,6.4c-2.9,3.5-4.9,7.4-10.8,7.4c-3.9,0-6.2-2.6-6.2-6.8c0-8.2,11-16,29.8-16c11,0,18.6,2.9,22.6,8.2
			c3.7,4.7,4,11.8,4,21.9V134C327.2,139.1,327.9,142.1,330,142.6z M300.3,118.6c-10.4,0-16.4,5-16.4,13c0,7.5,5.3,12.6,13.9,12.6
			c9.7,0,13-4.2,13-13.7v-10.7C306.9,119,303.3,118.6,300.3,118.6z"/>
		<path class="st2" d="M365.5,105.6c0,2.9,0.1,4.4,1.4,4.4c0.7,0,3.6-1.8,8.2-6c5.8-5.4,9-8.6,9-10.4c0-1.8-5.4-1.7-5.4-5.7
			c0-4.9,5.8-5.8,17.9-5.8c8.7,0,13.2,1.7,13.2,5.4c0,5.6-6.8,3.9-12.8,7.4c-2.8,1.7-6,5-9.9,8.9c-1.9,1.9-3.1,3.2-3.1,4.2
			c0,1.4,2.5,4.7,7.1,10.7c10,13,16.8,20.5,20.3,23c4.9,3.5,11.1,2.2,11.1,7.1c0,4.3-4.6,5.8-14.4,5.8c-4.2,0-6.8-0.4-7.6-0.7
			c-4-1.4-7.2-6.5-13-13.9c-12.5-15.8-19-24.3-20.4-24.3c-1.2,0-1.4,1.1-1.4,3.9c0,0.8,0,1.8,0,3.1c0,11.9,0.3,18.7,1.9,20.7
			c1.9,2.2,7.4,1.5,7.4,6.1c0,4.2-5.3,5.1-16.5,5.1c-12.6,0-18-0.7-18-5.6c0-3.3,2.9-3.3,5.4-4.6c2.9-1.7,3.5-6.8,3.5-16.4
			c0-5.4-0.1-11.9-0.1-20.1c0-3.1,0-6.1,0-8.9c0-21.1-0.1-29.1-1.9-31.4c-1.1-1.2-3.5-1.5-6.5-2.5c-2.2-0.7-3.2-1.2-3.2-3.5
			c0-2.9,2.6-4.2,7.9-6c8.2-2.8,14.4-3.7,17.2-3.7c3.1,0,4,1.8,4,6.1c0,7.5-0.8,15-0.8,29.1L365.5,105.6L365.5,105.6z"/>
		<path class="st2" d="M451.1,130.8c0,7.6,0.4,12.1,2.8,13.3c3.3,1.8,6.4,1.4,6.4,5.3c0,4.2-5.1,5.1-16.4,5.1
			c-12.6,0-18.2-0.7-18.2-5.6c0-3.3,2.9-3.3,5.4-4.6c2.8-1.5,3.5-5.1,3.5-11.4c0-2.9-0.1-6.4-0.1-10.7c0-2.6,0-5.3,0-7.5
			c0-11.7-0.1-17.8-2.5-19c-3.5-1.8-7.8-1.5-7.8-5.1c0-2.2,1.9-3.9,5.8-5.4c9.7-3.9,17.2-4.9,18.6-4.9c2.8,0,3.6,1.9,3.6,6.1
			c0,1.8,0,4.4-0.1,7.5l-0.6,18.5C451.4,119,451.1,125.1,451.1,130.8z M441.8,54.4c6.5,0,11,4.2,11,9.2c0,5.1-4.9,9.4-11.8,9.4
			c-6.4,0-10.8-3.9-10.8-8.7C430.2,59.1,435.2,54.4,441.8,54.4z"/>
		<path class="st2" d="M513.3,80.7c7.4,0,14,3.5,18.2,8.3c5.7,6.8,6.1,15.1,6.1,26.5c0,5.4,0,8.6,0,9.7c0,3.5-0.1,6.2-0.1,8.7
			c0,5.7,0.4,8.7,3.3,10.4c2.4,1.2,5.4,1.2,5.4,4.6c0,4.9-5.4,5.4-17.8,5.4c-11.7,0-16.9-0.7-16.9-5c0-3.9,3.1-3.5,6.4-5.3
			c2.5-1.4,2.9-6.2,2.9-15c0-22.8-0.3-34.6-13.5-34.6c-5.1,0-10.3,3.2-12.8,8.5c-2.6,5.4-2.8,14.8-2.8,28.6c0,7.1,0.1,11.1,2.6,12.5
			c3.3,1.8,6.4,1.4,6.4,5.3c0,4.2-5.1,5.1-16.4,5.1c-12.6,0-18.2-0.7-18.2-5.6c0-3.3,2.9-3.3,5.4-4.6c2.8-1.5,3.5-5.1,3.5-11.4
			c0-2.9-0.1-6.4-0.1-10.7c0-2.6,0-5.3,0-7.5c0-11.7-0.1-17.8-2.5-19c-3.5-1.8-7.8-1.5-7.8-5.1c0-2.2,1.9-3.9,5.8-5.4
			c9.2-3.5,16-4.6,17.9-4.6c2.6,0,3.9,1.2,3.9,4.6v4c0,0.4,0,0.7,0,0.8c0,0.6,0,0.8,0.6,0.8c0.3,0,0.6-0.1,0.7-0.3l1.7-1.5
			C499.1,85.6,502.9,80.7,513.3,80.7z"/>
		<path class="st2" d="M551.5,108.1c0-15.5,13-27.3,31.4-27.3c5,0,11.2,1.1,18.7,2.8c3.9,0,7.9-1.9,13.5-5.8
			c1.9,1.2,3.1,2.9,3.1,4.7c0,4-2.9,7.9-8.7,11c1.9,3.9,2.9,7.5,2.9,11.8c0,15.5-12.5,26.9-31.8,26.9c-5.3,0-10-0.7-14.4-2.2
			c-1.9,2.1-2.9,4-2.9,5.7c0,4.7,4.7,6.7,14,6.7c7.2,0,14.6-1.5,22.2-1.5c13.5,0,20.7,5.7,20.7,15.7c0,14.7-15.8,26.8-40,26.8
			c-19.6,0-32.1-9.3-32.1-19.1c0-5.3,3.5-8.7,10.3-12.9c-5.7-1.9-8.7-5.8-8.7-10.7c0-5,3.5-9.6,10.4-13.9
			C554.4,121.7,551.5,115.4,551.5,108.1z M563.7,162.5c0,6.4,6.9,11.2,19.1,11.2c13.6,0,22.3-6.1,22.3-12.9c0-4.6-3.3-7.2-9.4-7.2
			c-4.4,0-11,1.4-19.3,1.4c-2.8,0-5.8-0.1-9-0.6C564.8,156.8,563.7,159.4,563.7,162.5z M581.6,122.6c8,0,14.2-6.5,14.2-16.2
			c0-10-6-16.5-14-16.5c-7.4,0-13.3,6.7-13.3,16.4C568.4,116.3,573.9,122.6,581.6,122.6z"/>
	</g>
	<g>
		<path class="st2" d="M429.8,332.3c0-1.2-0.3-1.8-0.6-1.8c-0.4,0-2.1,1.5-5.4,4c-5.6,4.2-11,6.2-16.9,6.2
			c-17.6,0-30.5-13.7-30.5-35c0-23.6,14.4-39.7,34.8-39.7c9.9,0,16,4.3,17.2,4.3c0.8,0,1-1.2,1-3.5v-5.1c0-6.5-0.8-8.6-4.6-9.9
			c-3.5-1.1-6.4-1.1-6.4-4.4c0-3.1,2.9-4.6,8.9-6.7c6.2-2.2,11.2-3.1,14.7-3.1c3.3,0,4.6,1.7,4.6,6c0,2.4-0.8,15-0.8,44.8
			c0,24.3,0.1,36.5,2.1,38c3.1,2.2,8.7,0.8,8.7,5.1c0,3.5-3.9,4.6-11.2,6.9c-5,1.7-10,2.2-11.9,2.2c-2.6,0-3.9-1.4-3.9-4.7
			L429.8,332.3L429.8,332.3z M428.9,291.5c0-4,0-6.7-1.4-8.5c-2.9-4-9-7.2-15.3-7.2c-10.4,0-17.6,8.9-17.6,24.6
			c0,16.8,8.2,27.3,18.6,27.3c10,0,15.7-5.6,15.7-16.4L428.9,291.5L428.9,291.5z"/>
	</g>
	<g>
		<path class="st0" d="M357.1,183.9H196c-6.3,0-11.4,5.1-11.4,11.4v161.1c0,6.3,5.1,11.4,11.4,11.4h161.1c6.3,0,11.4-5.1,11.4-11.4
			V195.3C368.5,189,363.4,183.9,357.1,183.9z"/>
		<g>
			<g>
				<path class="st1" d="M197.2,237h48.2c16.8,0,30.3,8.5,30.3,25.4c0,11.2-6.2,18.5-17.3,20.7v0.3c14,1.4,21.9,13,21.9,25.3
					c0,25.5-18.2,30.5-39.5,30.5h-43.4V237z M216.5,278.1h22.9c8.5,0,16.2-3.3,16.2-13c0-7.8-5-12.8-16.2-12.8h-22.9V278.1z
					 M216.5,322.4h25c13.5,0,20.9-4.8,18.2-19.7c-1.1-5.9-6.2-10.1-12.2-10.1h-30.9v29.8H216.5z"/>
				<path class="st1" d="M353.1,327.1c0,7.5,1.7,10.7,2.8,12.2h-18.5c-1.1-1.7-1.7-4.7-1.7-6.7c-6.8,5.4-14.7,8.3-23.7,8.3
					c-13.7,0-24.7-8.7-24.7-22.8c0-14.2,11.4-20.5,22.1-22.8l7.4-1.4c6.2-1.2,14.6-2.8,19-4.3v-2.1c0-7.2-6.2-9.2-13.7-9.2
					c-10.1,0-13.5,3.1-13.5,11l-17.5-0.7c0-17.1,15.1-23.7,30.9-23.7c15.7,0,31.2,3.2,31.2,23.9L353.1,327.1L353.1,327.1z
					 M335.6,302.9c-2.4,1.1-5.1,2.1-8.3,2.6l-9.6,2.1c-6.7,1.2-12.1,3.2-12.1,10c0,5.4,5,9,11.4,9c8.2,0,18.7-4,18.7-13.3v-10.4
					H335.6z"/>
			</g>
			<g>
				<path class="st1" d="M323.2,210.9h11.7l-0.4,3.6h-8l-0.7,4.3c1.1-1,2.4-1.5,3.7-1.5c4.4,0,6.5,3.3,6.5,7.2
					c0,4.9-3.3,7.6-7.8,7.6c-3.9,0-7.1-1.9-7.2-6.1l4.3-0.3c0,1.8,1.1,3.2,3.1,3.2c2.5,0,3.5-2.1,3.5-4.3c0-2.8-1.4-3.9-3.5-3.9
					c-1.5,0-2.4,0.7-3.1,1.9l-3.6-0.3L323.2,210.9z"/>
				<path class="st1" d="M348.8,216.3c-0.1-1.5-1.1-2.4-2.5-2.4c-3.1,0-3.6,3.9-3.6,6.4l0,0c0.6-0.7,1.7-1.9,4-1.9
					c3.9,0,6.2,2.8,6.2,6.9c0,3.9-2.8,6.9-6.9,6.9c-6.1,0-7.5-5.4-7.5-10.3c0-6.7,2.6-11.4,7.8-11.4c3.5,0,5.8,1.8,6.4,5.3
					L348.8,216.3z M342.8,225.4c0,2.1,1.1,3.5,3.1,3.5s3.1-1.2,3.1-3.5c0-2.1-1.1-3.5-3.1-3.5S342.8,223.1,342.8,225.4z"/>
			</g>
		</g>
	</g>
</g>
</svg>
